<?xml version="1.0" encoding="utf-8"?>
<!-- Generator: Adobe Illustrator 21.0.0, SVG Export Plug-In . SVG Version: 6.00 Build 0)  -->
<svg version="1.1" id="Layer_1" xmlns="http://www.w3.org/2000/svg" xmlns:xlink="http://www.w3.org/1999/xlink" x="0px" y="0px"
	 viewBox="0 0 150 150" style="enable-background:new 0 0 150 150;" xml:space="preserve">
<style type="text/css">
	.st0{fill:#FFFFFF;}
</style>
<g>
	<path d="M75,146.5c-39.4,0-71.5-32.1-71.5-71.5C3.5,35.6,35.6,3.5,75,3.5c39.4,0,71.5,32.1,71.5,71.5
		C146.5,114.4,114.4,146.5,75,146.5z"/>
	<path d="M75,4c39.1,0,71,31.9,71,71s-31.9,71-71,71S4,114.1,4,75S35.9,4,75,4 M75,3C35.2,3,3,35.2,3,75s32.2,72,72,72
		s72-32.2,72-72S114.8,3,75,3L75,3z"/>
</g>
<g>
	<path class="st0" d="M115.7,102.1h-12.4V72.7c0-5.6-0.8-9.7-2.4-12.2c-1.6-2.5-4.3-3.8-8.2-3.8c-3.2,0-6,1.6-8.2,4.8
		c-2.3,3.2-3.4,7-3.4,11.5v29.1H68.7V71.7c0-10-3.6-15-10.8-15c-3.3,0-6.1,1.5-8.2,4.5c-2.2,3-3.2,6.9-3.2,11.7v29.1H34.1V48.2h12.4
		v8.5h0.2c3.9-6.5,9.7-9.8,17.2-9.8c3.8,0,7.1,1,9.9,3.1c2.8,2.1,4.8,4.7,5.8,8.1C83.6,50.7,89.6,47,97.7,47c12,0,18,7.3,18,21.9
		V102.1z"/>
</g>
<g>
</g>
<g>
</g>
<g>
</g>
<g>
</g>
<g>
</g>
<g>
</g>
<g>
</g>
<g>
</g>
<g>
</g>
<g>
</g>
<g>
</g>
<g>
</g>
<g>
</g>
<g>
</g>
<g>
</g>
</svg>
